<?xml version="1.0" encoding="utf-8"?>
<svg xmlns="http://www.w3.org/2000/svg" viewBox="0 0 500 500">
  <g style="" transform="matrix(41.622238, 0, 0, 41.622086, -11060.467773, -4986.498047)">
    <rect x="267.115" y="121.37" width="9.2" height="9.124" style="fill: rgb(255, 255, 255);"/>
    <path fill="#0A66C2" d="M 275.979 130.037 L 274.201 130.037 L 274.201 127.252 C 274.201 126.588 274.189 125.733 273.276 125.733 C 272.35 125.733 272.208 126.457 272.208 127.203 L 272.208 130.037 L 270.43 130.037 L 270.43 124.31 L 272.137 124.31 L 272.137 125.093 L 272.161 125.093 C 272.509 124.499 273.157 124.143 273.845 124.168 C 275.647 124.168 275.98 125.353 275.98 126.896 L 275.979 130.036 L 275.979 130.037 Z M 268.424 123.527 C 267.855 123.524 267.395 123.064 267.392 122.496 C 267.392 121.93 267.858 121.464 268.424 121.464 C 268.99 121.464 269.455 121.93 269.456 122.496 C 269.456 123.062 268.99 123.528 268.424 123.528 L 268.424 123.527 Z M 269.313 130.037 L 267.533 130.037 L 267.533 124.31 L 269.313 124.31 L 269.313 130.037 L 269.313 130.037 Z M 276.864 119.812 L 266.639 119.812 C 266.156 119.809 265.761 120.195 265.754 120.678 L 265.754 130.946 C 265.761 131.428 266.156 131.815 266.639 131.812 L 276.865 131.812 C 277.348 131.816 277.745 131.43 277.754 130.946 L 277.754 120.677 C 277.745 120.194 277.348 119.808 276.865 119.813 L 276.864 119.812 Z" style="stroke-width: 1;"/>
  </g>
</svg>